<svg width="303" height="81" viewBox="0 0 303 81" fill="none" xmlns="http://www.w3.org/2000/svg">
<rect width="120" height="81" rx="20" fill="black"/>
<circle cx="26.5" cy="23.5" r="14.5" fill="white"/>
<circle cx="26.5" cy="58.5" r="14.5" fill="white"/>
<circle cx="94.5" cy="23.5" r="14.5" fill="white"/>
<circle cx="94.5" cy="58.5" r="14.5" fill="white"/>
<circle cx="60.5" cy="23.5" r="14.5" fill="white"/>
<circle cx="60.5" cy="58.5" r="14.5" fill="white"/>
<line x1="8.23223" y1="42.2322" x2="39.2322" y2="11.2322" stroke="black" stroke-width="5"/>
<line x1="13.2322" y1="71.2322" x2="44.2322" y2="40.2322" stroke="black" stroke-width="5"/>
<line x1="44.2322" y1="73.2322" x2="75.2322" y2="42.2322" stroke="black" stroke-width="5"/>
<line x1="42.7678" y1="5.23223" x2="73.7678" y2="36.2322" stroke="black" stroke-width="5"/>
<line x1="76.7678" y1="39.2322" x2="107.768" y2="70.2322" stroke="black" stroke-width="5"/>
<line x1="76.7678" y1="4.23223" x2="107.768" y2="35.2322" stroke="black" stroke-width="5"/>
<path d="M153.416 38H148.584V29.168C147.24 29.6373 146.003 29.9893 144.872 30.224C143.763 30.4587 142.643 30.576 141.512 30.576C139.379 30.576 137.704 30.064 136.488 29.04C135.293 27.9947 134.696 26.512 134.696 24.592V15.152H139.528V23.216C139.528 24.3253 139.784 25.1573 140.296 25.712C140.808 26.2667 141.672 26.544 142.888 26.544C143.784 26.544 144.68 26.448 145.576 26.256C146.472 26.064 147.475 25.776 148.584 25.392V15.152H153.416V38ZM172.313 38H159.161V15.152H172.313V19.12H163.993V24.144H171.737V28.112H163.993V34H172.313V38ZM184.364 15.152C187.308 15.152 189.452 15.792 190.796 17.072C192.161 18.3307 192.844 20.0693 192.844 22.288C192.844 23.2907 192.694 24.2507 192.396 25.168C192.097 26.064 191.596 26.8747 190.892 27.6C190.209 28.304 189.302 28.8587 188.172 29.264C187.041 29.6693 185.644 29.872 183.98 29.872H181.9V38H177.068V15.152H184.364ZM184.108 19.12H181.9V25.904H183.5C184.417 25.904 185.206 25.7867 185.868 25.552C186.529 25.3173 187.041 24.944 187.404 24.432C187.766 23.92 187.948 23.2587 187.948 22.448C187.948 21.3173 187.638 20.4853 187.02 19.952C186.401 19.3973 185.43 19.12 184.108 19.12ZM210.313 38H197.161V15.152H210.313V19.12H201.993V24.144H209.737V28.112H201.993V34H210.313V38ZM215.068 38V15.152H233.148V38H228.316V19.184H219.9V38H215.068ZM252.895 38L251.231 32.56H242.911L241.247 38H236.031L244.095 15.056H250.015L258.111 38H252.895ZM248.415 23.184C248.309 22.8213 248.17 22.3627 247.999 21.808C247.829 21.2533 247.658 20.688 247.487 20.112C247.317 19.536 247.178 19.0347 247.071 18.608C246.965 19.0347 246.815 19.568 246.623 20.208C246.453 20.8267 246.282 21.424 246.111 22C245.962 22.5547 245.845 22.9493 245.759 23.184L244.127 28.496H250.079L248.415 23.184ZM279.469 38H273.933L268.621 29.36L263.309 38H258.125L265.709 26.224L258.605 15.152H263.949L268.877 23.376L273.709 15.152H278.925L271.757 26.48L279.469 38ZM296.333 38L294.669 32.56H286.349L284.685 38H279.469L287.533 15.056H293.453L301.549 38H296.333ZM291.853 23.184C291.746 22.8213 291.607 22.3627 291.437 21.808C291.266 21.2533 291.095 20.688 290.925 20.112C290.754 19.536 290.615 19.0347 290.509 18.608C290.402 19.0347 290.253 19.568 290.061 20.208C289.89 20.8267 289.719 21.424 289.549 22C289.399 22.5547 289.282 22.9493 289.197 23.184L287.565 28.496H293.517L291.853 23.184Z" fill="black"/>
<path d="M149.852 49.988V62H146.794V56.104C146.794 55.5173 146.801 54.9453 146.816 54.388C146.845 53.8307 146.882 53.3173 146.926 52.848H146.86L143.538 62H141.074L137.708 52.826H137.62C137.679 53.31 137.715 53.8307 137.73 54.388C137.759 54.9307 137.774 55.532 137.774 56.192V62H134.716V49.988H139.358L142.35 58.128L145.386 49.988H149.852ZM151.562 49.988H155.149L157.415 56.742C157.488 56.962 157.547 57.182 157.591 57.402C157.649 57.622 157.693 57.8493 157.723 58.084C157.767 58.3187 157.796 58.568 157.811 58.832H157.877C157.921 58.4507 157.979 58.0913 158.053 57.754C158.141 57.402 158.236 57.0647 158.339 56.742L160.561 49.988H164.081L158.999 63.54C158.691 64.3613 158.287 65.0507 157.789 65.608C157.305 66.1653 156.74 66.5833 156.095 66.862C155.449 67.1407 154.745 67.28 153.983 67.28C153.616 67.28 153.293 67.258 153.014 67.214C152.751 67.1847 152.516 67.148 152.311 67.104V64.508C152.472 64.5373 152.663 64.5667 152.883 64.596C153.117 64.6253 153.359 64.64 153.609 64.64C154.063 64.64 154.452 64.5447 154.775 64.354C155.112 64.1633 155.391 63.8993 155.611 63.562C155.831 63.2393 156.007 62.8873 156.139 62.506L156.337 61.912L151.562 49.988ZM176.176 49.988V59.602H177.936V66.312H174.988V62H166.914V66.312H163.966V59.602H164.978C165.506 58.7953 165.954 57.8787 166.32 56.852C166.687 55.8107 166.98 54.7033 167.2 53.53C167.42 52.3567 167.582 51.176 167.684 49.988H176.176ZM170.434 52.452C170.317 53.332 170.17 54.19 169.994 55.026C169.818 55.8473 169.598 56.6393 169.334 57.402C169.085 58.1647 168.777 58.898 168.41 59.602H172.898V52.452H170.434ZM186.672 49.768C188.021 49.768 189.114 50.296 189.95 51.352C190.786 52.3933 191.204 53.9333 191.204 55.972C191.204 57.336 191.006 58.4873 190.61 59.426C190.214 60.35 189.671 61.0467 188.982 61.516C188.292 61.9853 187.493 62.22 186.584 62.22C186.012 62.22 185.513 62.1467 185.088 62C184.677 61.8533 184.325 61.6627 184.032 61.428C183.738 61.1933 183.482 60.944 183.262 60.68H183.086C183.144 60.9587 183.188 61.252 183.218 61.56C183.247 61.8533 183.262 62.1467 183.262 62.44V67.28H179.984V49.988H182.646L183.108 51.55H183.262C183.482 51.2273 183.746 50.934 184.054 50.67C184.362 50.3913 184.728 50.1713 185.154 50.01C185.594 49.8487 186.1 49.768 186.672 49.768ZM185.616 52.386C185.044 52.386 184.589 52.5033 184.252 52.738C183.914 52.9727 183.665 53.332 183.504 53.816C183.357 54.2853 183.276 54.8793 183.262 55.598V55.95C183.262 56.7273 183.335 57.3873 183.482 57.93C183.628 58.458 183.878 58.8613 184.23 59.14C184.582 59.4187 185.058 59.558 185.66 59.558C186.158 59.558 186.569 59.4187 186.892 59.14C187.214 58.8613 187.456 58.4507 187.618 57.908C187.779 57.3653 187.86 56.7053 187.86 55.928C187.86 54.7547 187.676 53.8747 187.31 53.288C186.958 52.6867 186.393 52.386 185.616 52.386ZM198.833 49.746C200.447 49.746 201.679 50.098 202.529 50.802C203.395 51.4913 203.827 52.5547 203.827 53.992V62H201.539L200.901 60.372H200.813C200.476 60.7973 200.124 61.1493 199.757 61.428C199.405 61.7067 198.995 61.9047 198.525 62.022C198.071 62.154 197.506 62.22 196.831 62.22C196.127 62.22 195.489 62.088 194.917 61.824C194.36 61.5453 193.92 61.1273 193.597 60.57C193.275 59.998 193.113 59.2793 193.113 58.414C193.113 57.138 193.561 56.1993 194.455 55.598C195.35 54.982 196.692 54.6447 198.481 54.586L200.571 54.52V53.992C200.571 53.3613 200.403 52.8993 200.065 52.606C199.743 52.3127 199.288 52.166 198.701 52.166C198.115 52.166 197.543 52.254 196.985 52.43C196.428 52.5913 195.871 52.7967 195.313 53.046L194.235 50.824C194.881 50.4867 195.592 50.2227 196.369 50.032C197.161 49.8413 197.983 49.746 198.833 49.746ZM199.295 56.478C198.239 56.5073 197.506 56.698 197.095 57.05C196.685 57.402 196.479 57.864 196.479 58.436C196.479 58.9347 196.626 59.294 196.919 59.514C197.213 59.7193 197.594 59.822 198.063 59.822C198.767 59.822 199.361 59.6167 199.845 59.206C200.329 58.7807 200.571 58.1867 200.571 57.424V56.434L199.295 56.478ZM209.009 62H205.467L208.701 57.248C208.29 57.072 207.901 56.8373 207.535 56.544C207.183 56.236 206.897 55.8473 206.677 55.378C206.457 54.9087 206.347 54.3513 206.347 53.706C206.347 52.5033 206.801 51.5867 207.711 50.956C208.62 50.3107 209.786 49.988 211.209 49.988H216.797V62H213.519V57.534H211.715L209.009 62ZM209.559 53.728C209.559 54.2267 209.757 54.6227 210.153 54.916C210.549 55.1947 211.062 55.334 211.693 55.334H213.519V52.298H211.275C210.688 52.298 210.255 52.4447 209.977 52.738C209.698 53.0167 209.559 53.3467 209.559 53.728ZM229.814 49.746C231.427 49.746 232.659 50.098 233.51 50.802C234.375 51.4913 234.808 52.5547 234.808 53.992V62H232.52L231.882 60.372H231.794C231.457 60.7973 231.105 61.1493 230.738 61.428C230.386 61.7067 229.975 61.9047 229.506 62.022C229.051 62.154 228.487 62.22 227.812 62.22C227.108 62.22 226.47 62.088 225.898 61.824C225.341 61.5453 224.901 61.1273 224.578 60.57C224.255 59.998 224.094 59.2793 224.094 58.414C224.094 57.138 224.541 56.1993 225.436 55.598C226.331 54.982 227.673 54.6447 229.462 54.586L231.552 54.52V53.992C231.552 53.3613 231.383 52.8993 231.046 52.606C230.723 52.3127 230.269 52.166 229.682 52.166C229.095 52.166 228.523 52.254 227.966 52.43C227.409 52.5913 226.851 52.7967 226.294 53.046L225.216 50.824C225.861 50.4867 226.573 50.2227 227.35 50.032C228.142 49.8413 228.963 49.746 229.814 49.746ZM230.276 56.478C229.22 56.5073 228.487 56.698 228.076 57.05C227.665 57.402 227.46 57.864 227.46 58.436C227.46 58.9347 227.607 59.294 227.9 59.514C228.193 59.7193 228.575 59.822 229.044 59.822C229.748 59.822 230.342 59.6167 230.826 59.206C231.31 58.7807 231.552 58.1867 231.552 57.424V56.434L230.276 56.478ZM249.075 49.988V62H245.797V52.452H241.441V62H238.163V49.988H249.075ZM262.459 52.452H258.521V62H255.243V52.452H251.305V49.988H262.459V52.452ZM269.41 49.768C270.525 49.768 271.478 49.9807 272.27 50.406C273.077 50.8313 273.7 51.4473 274.14 52.254C274.58 53.0607 274.8 54.0507 274.8 55.224V56.808H267.056C267.085 57.732 267.357 58.458 267.87 58.986C268.398 59.514 269.124 59.778 270.048 59.778C270.825 59.778 271.529 59.7047 272.16 59.558C272.791 59.3967 273.443 59.1547 274.118 58.832V61.362C273.531 61.6553 272.908 61.868 272.248 62C271.603 62.1467 270.818 62.22 269.894 62.22C268.691 62.22 267.628 62 266.704 61.56C265.78 61.1053 265.054 60.4233 264.526 59.514C263.998 58.6047 263.734 57.4607 263.734 56.082C263.734 54.674 263.969 53.508 264.438 52.584C264.922 51.6453 265.589 50.9413 266.44 50.472C267.291 50.0027 268.281 49.768 269.41 49.768ZM269.432 52.1C268.801 52.1 268.273 52.3053 267.848 52.716C267.437 53.1267 267.195 53.7647 267.122 54.63H271.72C271.72 54.146 271.632 53.7133 271.456 53.332C271.295 52.9507 271.045 52.65 270.708 52.43C270.371 52.21 269.945 52.1 269.432 52.1ZM285.334 49.988H288.942L284.19 55.752L289.36 62H285.642L280.736 55.906V62H277.458V49.988H280.736V55.818L285.334 49.988ZM296.007 49.746C297.621 49.746 298.853 50.098 299.703 50.802C300.569 51.4913 301.001 52.5547 301.001 53.992V62H298.713L298.075 60.372H297.987C297.65 60.7973 297.298 61.1493 296.931 61.428C296.579 61.7067 296.169 61.9047 295.699 62.022C295.245 62.154 294.68 62.22 294.005 62.22C293.301 62.22 292.663 62.088 292.091 61.824C291.534 61.5453 291.094 61.1273 290.771 60.57C290.449 59.998 290.287 59.2793 290.287 58.414C290.287 57.138 290.735 56.1993 291.629 55.598C292.524 54.982 293.866 54.6447 295.655 54.586L297.745 54.52V53.992C297.745 53.3613 297.577 52.8993 297.239 52.606C296.917 52.3127 296.462 52.166 295.875 52.166C295.289 52.166 294.717 52.254 294.159 52.43C293.602 52.5913 293.045 52.7967 292.487 53.046L291.409 50.824C292.055 50.4867 292.766 50.2227 293.543 50.032C294.335 49.8413 295.157 49.746 296.007 49.746ZM296.469 56.478C295.413 56.5073 294.68 56.698 294.269 57.05C293.859 57.402 293.653 57.864 293.653 58.436C293.653 58.9347 293.8 59.294 294.093 59.514C294.387 59.7193 294.768 59.822 295.237 59.822C295.941 59.822 296.535 59.6167 297.019 59.206C297.503 58.7807 297.745 58.1867 297.745 57.424V56.434L296.469 56.478Z" fill="black"/>
</svg>
